<mxfile host="app.diagrams.net" modified="2024-02-26T15:26:30.265Z" agent="Mozilla/5.0 (Windows NT 10.0; Win64; x64) AppleWebKit/537.36 (KHTML, like Gecko) Chrome/121.0.0.0 Safari/537.36 OPR/107.0.0.0" etag="z0XKnywhN7sOy42bOnSl" version="23.1.6" type="github">
  <diagram name="Page-1" id="TQ3RvjuryefRvW5htU28">
    <mxGraphModel dx="1180" dy="753" grid="1" gridSize="10" guides="1" tooltips="1" connect="1" arrows="1" fold="1" page="1" pageScale="1" pageWidth="827" pageHeight="1169" math="0" shadow="0">
      <root>
        <mxCell id="0" />
        <mxCell id="1" parent="0" />
        <mxCell id="2Baxp5Ye8EafHjWzXj3a-18" style="edgeStyle=orthogonalEdgeStyle;rounded=0;orthogonalLoop=1;jettySize=auto;html=1;entryX=0;entryY=0.5;entryDx=0;entryDy=0;" edge="1" parent="1" source="2Baxp5Ye8EafHjWzXj3a-1" target="2Baxp5Ye8EafHjWzXj3a-17">
          <mxGeometry relative="1" as="geometry" />
        </mxCell>
        <mxCell id="2Baxp5Ye8EafHjWzXj3a-1" value="engine" style="rounded=0;whiteSpace=wrap;html=1;" vertex="1" parent="1">
          <mxGeometry x="100" y="110" width="610" height="60" as="geometry" />
        </mxCell>
        <mxCell id="2Baxp5Ye8EafHjWzXj3a-4" value="scenes" style="rounded=0;whiteSpace=wrap;html=1;" vertex="1" parent="1">
          <mxGeometry x="100" y="170" width="610" height="60" as="geometry" />
        </mxCell>
        <mxCell id="2Baxp5Ye8EafHjWzXj3a-5" value="inputs" style="rounded=0;whiteSpace=wrap;html=1;" vertex="1" parent="1">
          <mxGeometry x="100" y="230" width="180" height="60" as="geometry" />
        </mxCell>
        <mxCell id="2Baxp5Ye8EafHjWzXj3a-6" value="minngames" style="rounded=0;whiteSpace=wrap;html=1;" vertex="1" parent="1">
          <mxGeometry x="280" y="230" width="240" height="60" as="geometry" />
        </mxCell>
        <mxCell id="2Baxp5Ye8EafHjWzXj3a-7" value="outputs" style="rounded=0;whiteSpace=wrap;html=1;" vertex="1" parent="1">
          <mxGeometry x="520" y="230" width="190" height="60" as="geometry" />
        </mxCell>
        <mxCell id="2Baxp5Ye8EafHjWzXj3a-8" value="&lt;ul&gt;&lt;li&gt;mouse input&lt;/li&gt;&lt;li&gt;touch input&lt;/li&gt;&lt;/ul&gt;" style="rounded=0;whiteSpace=wrap;html=1;" vertex="1" parent="1">
          <mxGeometry x="120" y="300" width="120" height="60" as="geometry" />
        </mxCell>
        <mxCell id="2Baxp5Ye8EafHjWzXj3a-9" value="plasticcatch" style="rounded=0;whiteSpace=wrap;html=1;" vertex="1" parent="1">
          <mxGeometry x="340" y="300" width="120" height="60" as="geometry" />
        </mxCell>
        <mxCell id="2Baxp5Ye8EafHjWzXj3a-10" value="memory" style="rounded=0;whiteSpace=wrap;html=1;" vertex="1" parent="1">
          <mxGeometry x="340" y="440" width="120" height="60" as="geometry" />
        </mxCell>
        <mxCell id="2Baxp5Ye8EafHjWzXj3a-11" value="factory destroy" style="rounded=0;whiteSpace=wrap;html=1;" vertex="1" parent="1">
          <mxGeometry x="340" y="370" width="120" height="60" as="geometry" />
        </mxCell>
        <mxCell id="2Baxp5Ye8EafHjWzXj3a-12" value="stack windmil" style="rounded=0;whiteSpace=wrap;html=1;" vertex="1" parent="1">
          <mxGeometry x="340" y="510" width="120" height="60" as="geometry" />
        </mxCell>
        <mxCell id="2Baxp5Ye8EafHjWzXj3a-16" value="&lt;span style=&quot;background-color: initial;&quot;&gt;fix digital world, educational video, game over&lt;/span&gt;" style="rounded=0;whiteSpace=wrap;html=1;align=center;" vertex="1" parent="1">
          <mxGeometry x="555" y="300" width="120" height="60" as="geometry" />
        </mxCell>
        <mxCell id="2Baxp5Ye8EafHjWzXj3a-17" value="godot" style="rounded=0;whiteSpace=wrap;html=1;" vertex="1" parent="1">
          <mxGeometry x="770" y="110" width="120" height="60" as="geometry" />
        </mxCell>
      </root>
    </mxGraphModel>
  </diagram>
</mxfile>
